<svg xmlns="http://www.w3.org/2000/svg" width="20" height="27" viewBox="0 0 20 27"><g><g><path fill="#fff" d="M18.54 22.69a21.113 21.113 0 0 0 1.507-3.147 5.917 5.917 0 0 1-2.905-7.522 5.609 5.609 0 0 1 2.25-2.789 5.847 5.847 0 0 0-4.482-2.626 6.509 6.509 0 0 0-2.69.627 4.48 4.48 0 0 1-1.793.475 5.372 5.372 0 0 1-2.026-.51 6.543 6.543 0 0 0-2.457-.592A6.022 6.022 0 0 0 1.04 9.869c-1.676 2.905-1.398 8.374 1.363 13.018.968 1.676 2.304 3.523 4.025 3.586.6-.02 1.186-.19 1.704-.493a4.828 4.828 0 0 1 2.322-.61 4.582 4.582 0 0 1 2.313.61c.508.313 1.09.483 1.686.493 1.685-.036 3.093-2.107 4.088-3.783M14.426.527a5.974 5.974 0 0 1-1.13 4.205 4.562 4.562 0 0 1-3.613 2.07 5.709 5.709 0 0 1 1.174-4.087A5.301 5.301 0 0 1 14.426.526"/></g></g></svg>