<svg xmlns="http://www.w3.org/2000/svg" width="23" height="22" viewBox="0 0 23 22"><g><g clip-path="url(#clip-2058db81-3ad6-4ff4-8c98-fb7c613609db)"><path fill="#fff" d="M20.65 2.568L14.185.953a1.615 1.615 0 0 0-2.011 1.56v1.96L8.099 3.455a1.616 1.616 0 0 0-2.012 1.56v1.96L2.013 5.957a1.615 1.615 0 0 0-2.011 1.56v10.867c0 .922.63 1.727 1.53 1.951l6.466 1.616a1.616 1.616 0 0 0 2.011-1.561V9.523c0-.03-.006-.06-.008-.09a2.098 2.098 0 0 0-.02-.23c-.008-.051-.022-.096-.033-.144-.013-.053-.024-.107-.041-.158-.017-.053-.038-.1-.06-.149a2.016 2.016 0 0 0-.135-.268 2.192 2.192 0 0 0-.492-.556.097.097 0 0 1-.022-.13.115.115 0 0 1 .127-.047c.852.257 1.667 1.13 1.748 2.23l.282 8.298c.01.286.205.53.48.608l2.249.562a1.616 1.616 0 0 0 2.01-1.561v-1.959l.002-8.89c0-.122-.01-.236-.03-.344-.005-.035-.015-.065-.022-.099a1.916 1.916 0 0 0-.053-.203c-.015-.044-.033-.085-.05-.128a1.893 1.893 0 0 0-.328-.54 1.983 1.983 0 0 0-.138-.149l-.051-.05a1.938 1.938 0 0 0-.117-.099.097.097 0 0 1-.022-.13.114.114 0 0 1 .127-.047c.852.257 1.667 1.13 1.748 2.23l.282 8.297c.01.291.21.54.492.612l2.235.558a1.616 1.616 0 0 0 2.011-1.561V4.519c0-.922-.63-1.726-1.53-1.951"/></g></g></svg>