<svg xmlns="http://www.w3.org/2000/svg" width="28" height="23" viewBox="0 0 28 23"><g><g opacity=".5"><g opacity=".5"><path fill="#fff" d="M23.448.128c.76 0 1.377.616 1.377 1.376v2.752a1.376 1.376 0 1 1-2.753 0V1.504c0-.76.616-1.376 1.376-1.376z"/></g><g opacity=".5"><path fill="#fff" d="M15.192 18.018a1.376 1.376 0 1 0-2.753 0v2.752a1.376 1.376 0 1 0 2.753 0z"/></g><g opacity=".5"><path fill="#fff" d="M13.815.128c.76 0 1.377.616 1.377 1.376v11.01a1.376 1.376 0 1 1-2.753 0V1.503c0-.76.616-1.376 1.376-1.376z"/></g><g opacity=".5"><path fill="#fff" d="M5.559 1.504a1.376 1.376 0 1 0-2.753 0V7.01a1.376 1.376 0 0 0 2.753 0z"/></g><g opacity=".5"><path fill="#fff" d="M5.559 12.513a1.376 1.376 0 1 0-2.753 0v8.257a1.376 1.376 0 1 0 2.753 0z"/></g><g opacity=".5"><path fill="#fff" d="M24.825 9.76a1.376 1.376 0 1 0-2.753 0v11.01a1.376 1.376 0 1 0 2.753 0z"/></g><g opacity=".5"><path fill="#fff" d="M23.448 8.385a1.376 1.376 0 1 1 0-2.752 1.376 1.376 0 0 1 0 2.752zm4.129-1.376a4.128 4.128 0 1 0-8.257 0 4.128 4.128 0 0 0 8.257 0z"/></g><g opacity=".5"><path fill="#fff" d="M13.815 13.89a1.376 1.376 0 1 1 0 2.752 1.376 1.376 0 0 1 0-2.753zm-4.128 1.375a4.128 4.128 0 1 0 8.257 0 4.128 4.128 0 0 0-8.257 0z"/></g><g opacity=".5"><path fill="#fff" d="M4.182 8.385a1.376 1.376 0 1 1 0 2.752 1.376 1.376 0 0 1 0-2.752zM.054 9.76a4.128 4.128 0 1 0 8.257 0 4.128 4.128 0 0 0-8.257 0z"/></g></g></g></svg>