<svg xmlns="http://www.w3.org/2000/svg" width="28" height="26" viewBox="0 0 28 26"><g><g opacity=".5"><g opacity=".5"><path fill="#fff" d="M1.005 14.054a14.76 14.76 0 0 1-.767-2.752h11.459c.55 0 1.048.328 1.265.834l.8 1.865 2.863-6.681a1.376 1.376 0 0 1 2.53 0l1.706 3.982h6.424a14.764 14.764 0 0 1-.768 2.752h-6.563c-.55 0-1.048-.328-1.265-.834l-.8-1.865-2.863 6.682a1.376 1.376 0 0 1-2.53 0l-1.706-3.983z"/></g><g opacity=".5"><path fill="#fff" d="M13.761 2.395A8.257 8.257 0 0 1 27.522 8.55c0 10.117-9.18 14.872-12.544 16.274a3.142 3.142 0 0 1-2.433 0C9.18 23.421 0 18.666 0 8.55A8.257 8.257 0 0 1 13.76 2.395zm0 3.694l-1.835-1.643A5.505 5.505 0 0 0 2.752 8.55c0 4.128 1.844 7.172 4.173 9.427 2.37 2.293 5.157 3.671 6.679 4.306a.391.391 0 0 0 .315 0c1.521-.635 4.309-2.013 6.679-4.306 2.329-2.255 4.172-5.3 4.172-9.427a5.505 5.505 0 0 0-9.173-4.104z"/></g></g></g></svg>