<svg xmlns="http://www.w3.org/2000/svg" width="25" height="26" viewBox="0 0 25 26"><g><g opacity=".5"><g opacity=".5"><path fill="#fff" d="M6.68 3.245c.849-.07 1.94-.07 3.503-.07h4.955c1.3 0 2.208 0 2.918.048.697.048 1.104.137 1.414.265a4.128 4.128 0 0 1 2.234 2.235c.128.31.218.716.265 1.414.049.71.05 1.617.05 2.918 0 1.301-.001 2.208-.05 2.918-.047.698-.137 1.104-.265 1.414a4.128 4.128 0 0 1-2.234 2.234c-.31.129-.717.218-1.414.265-.71.049-1.617.05-2.918.05H11.5c-.478 0-.899-.001-1.306.08a4.128 4.128 0 0 0-1.934.968c-.31.276-.561.613-.848.996l-.06.079c-.87 1.16-1.484 1.978-1.967 2.547-.239.281-.42.47-.558.594-.118.105-.174.136-.178.138a1.376 1.376 0 0 1-1.702-.568c-.001-.003-.028-.061-.06-.216a6.199 6.199 0 0 1-.09-.81c-.044-.746-.045-1.769-.045-3.219v-6.92c0-1.564.001-2.654.07-3.503.069-.833.196-1.311.38-1.674a4.128 4.128 0 0 1 1.804-1.804c.363-.185.841-.311 1.674-.38zM10.125.422c-1.492 0-2.695 0-3.669.08-1.003.081-1.884.255-2.7.67A6.88 6.88 0 0 0 .75 4.179C.335 4.994.162 5.875.08 6.878 0 7.852 0 9.055 0 10.546v7.029c0 1.389 0 2.496.05 3.335.048.788.147 1.618.528 2.26a4.129 4.129 0 0 0 5.128 1.71c.689-.286 1.266-.891 1.777-1.493.544-.64 1.208-1.526 2.042-2.637l.03-.04c.379-.506.46-.603.538-.673.182-.163.405-.274.644-.322.103-.02.23-.027.862-.027h3.587c1.241 0 2.242 0 3.057-.056.838-.057 1.579-.177 2.28-.468a6.88 6.88 0 0 0 3.724-3.724c.29-.701.41-1.442.468-2.28.056-.814.056-1.815.056-3.056v-.098c0-1.24 0-2.242-.056-3.057-.057-.837-.178-1.578-.468-2.28A6.88 6.88 0 0 0 20.523.946c-.701-.29-1.442-.411-2.28-.469-.815-.055-1.816-.055-3.057-.055h-5.061z"/></g><g opacity=".5"><path fill="#fff" d="M6.88 11.431a1.376 1.376 0 1 0 0-2.752 1.376 1.376 0 0 0 0 2.752z"/></g><g opacity=".5"><path fill="#fff" d="M13.761 10.055a1.376 1.376 0 1 1-2.752 0 1.376 1.376 0 0 1 2.752 0z"/></g><g opacity=".5"><path fill="#fff" d="M19.266 10.055a1.376 1.376 0 1 1-2.752 0 1.376 1.376 0 0 1 2.752 0z"/></g></g></g></svg>