<svg xmlns="http://www.w3.org/2000/svg" width="28" height="25" viewBox="0 0 28 25"><g><g opacity=".5"><g opacity=".5"><path fill="#fff" d="M17.944 19.477a4.128 4.128 0 1 1 7.854 1.78l1.376 1.375a1.376 1.376 0 0 1-1.946 1.946l-1.376-1.375a4.128 4.128 0 0 1-5.908-3.726zm4.128-1.376a1.376 1.376 0 1 0 0 2.752 1.376 1.376 0 0 0 0-2.752z"/></g><g opacity=".5"><path fill="#fff" d="M5.559 15.348c0-.76.616-1.376 1.376-1.376h5.504a1.376 1.376 0 1 1 0 2.752H6.935c-.76 0-1.376-.616-1.376-1.376z"/></g><g opacity=".5"><path fill="#fff" d="M.054 7.091h27.523v2.753H.054z"/></g><g opacity=".5"><path fill="#fff" d="M7.979.21h11.673c1.108 0 2.022 0 2.767.061.773.064 1.484.2 2.152.54a5.505 5.505 0 0 1 2.406 2.405c.34.668.476 1.38.54 2.153.06.744.06 1.659.06 2.766v4.461a1.376 1.376 0 1 1-2.752 0V8.192c0-1.178-.001-1.98-.052-2.6-.05-.602-.139-.911-.248-1.126a2.752 2.752 0 0 0-1.203-1.203c-.215-.11-.524-.2-1.127-.248-.62-.051-1.42-.052-2.6-.052H8.035c-1.178 0-1.98.001-2.599.052-.603.049-.912.138-1.127.248a2.752 2.752 0 0 0-1.203 1.203c-.11.215-.199.524-.248 1.127-.05.62-.052 1.42-.052 2.6v6.054c0 1.18.001 1.98.052 2.6.05.603.139.912.248 1.127.264.518.685.939 1.203 1.203.215.11.524.199 1.127.248.62.05 1.42.052 2.6.052h5.78a1.376 1.376 0 1 1 0 2.752H7.978c-1.108 0-2.022 0-2.767-.06-.773-.064-1.485-.2-2.152-.54a5.505 5.505 0 0 1-2.406-2.406c-.34-.668-.476-1.379-.54-2.152-.06-.745-.06-1.659-.06-2.767V8.135c0-1.107 0-2.022.06-2.766.064-.774.2-1.485.54-2.153A5.505 5.505 0 0 1 3.06.811C3.727.47 4.439.335 5.212.27c.745-.06 1.66-.06 2.767-.06z"/></g></g></g></svg>