<svg xmlns="http://www.w3.org/2000/svg" width="25" height="25" viewBox="0 0 25 25"><defs><clipPath id="osj3a"><path d="M0 24.896V0h24.887v24.896z"/></clipPath></defs><g><g opacity=".5"><g opacity=".5"><g opacity=".5"><path fill="#fff" d="M0 24.896V0h24.887v24.896z"/></g><g clip-path="url(#osj3a)" opacity=".5"><path fill="#fff" d="M4.229 24.896l-.706-.187c-1.95-.512-3.34-2.094-3.478-4.126-.09-1.317-.017-2.644-.017-4.012h3.028v1.362c0 .706-.007 1.413.002 2.119.015 1.09.658 1.743 1.753 1.762.97.017 1.942.003 2.913.006.189 0 .378.017.637.03v3.046z"/></g><g clip-path="url(#osj3a)" opacity=".5"><path fill="#fff" d="M24.887 8.362h-3.083V6.408c-.001-.53.012-1.06-.004-1.59-.035-1.128-.676-1.753-1.808-1.761-1.127-.008-2.255-.002-3.43-.002V.014c.594 0 1.188-.007 1.782 0 .828.013 1.668-.05 2.481.072 2.187.324 3.592 1.772 3.958 3.953.017.1.069.197.104.295z"/></g><g clip-path="url(#osj3a)" opacity=".5"><path fill="#fff" d="M16.518 24.896v-3.077h2.103c.44 0 .881.003 1.322-.001 1.22-.013 1.846-.638 1.859-1.87.009-.952.021-1.905-.006-2.857-.013-.426.098-.594.554-.575.844.033 1.691.008 2.537.007v4.027c-.037.116-.092.228-.11.347-.295 1.894-1.622 3.357-3.475 3.825-.218.055-.435.116-.652.174z"/></g><g clip-path="url(#osj3a)" opacity=".5"><path fill="#fff" d="M4.109 13.09l2.034-2.032 4.315 4.386 8.026-8.063 2.138 2.15c-3.334 3.335-6.709 6.71-10.035 10.039l-6.478-6.48"/></g><g clip-path="url(#osj3a)" opacity=".5"><path fill="#fff" d="M8.316.018v3.007c-.186.01-.371.028-.557.029-.935.003-1.869-.002-2.804.002-1.261.004-1.894.63-1.898 1.882-.004 1.109-.001 2.218-.001 3.37H.016c0-.684-.011-1.366.003-2.047.015-.792-.022-1.594.093-2.373A4.527 4.527 0 0 1 4.388.028c1.284-.057 2.574-.01 3.928-.01"/></g></g></g></g></svg>