<svg xmlns="http://www.w3.org/2000/svg" width="23" height="28" viewBox="0 0 23 28"><g><g opacity=".5"><g opacity=".5"><path fill="#fff" d="M18.603 20.642l1.258 2.026c.57.917-.09 2.103-1.169 2.103H4.94a1.376 1.376 0 0 1-1.168-2.104l1.26-2.025zM9.068 9.633h5.505v3.343c0 .77.215 1.525.621 2.178l1.7 2.736H6.743l1.701-2.734c.408-.654.623-1.41.623-2.18zm8.257-2.752H6.316a1.376 1.376 0 0 0 0 2.752v3.342c0 .257-.072.509-.208.727l-4.673 7.511c-1.711 2.75.266 6.31 3.505 6.31h13.752c3.238 0 5.215-3.557 3.507-6.307l-4.667-7.514a1.376 1.376 0 0 1-.207-.726V9.633a1.376 1.376 0 1 0 0-2.752z"/></g><g opacity=".5"><path fill="#fff" d="M9.069 4.128a1.376 1.376 0 1 0 0-2.752 1.376 1.376 0 0 0 0 2.752zm5.504-1.376a1.376 1.376 0 1 0 0-2.752 1.376 1.376 0 0 0 0 2.752z"/></g></g></g></svg>