<svg xmlns="http://www.w3.org/2000/svg" width="22" height="28" viewBox="0 0 22 28"><g><g opacity=".5"><g opacity=".5"><path fill="#fff" d="M14.094 3.21c1.108 0 2.022 0 2.766.061.774.063 1.485.199 2.153.54a5.505 5.505 0 0 1 2.406 2.405c.34.668.476 1.379.539 2.152.06.745.06 1.66.06 2.767v8.921c0 1.108 0 2.022-.06 2.767-.063.773-.2 1.484-.54 2.152a5.505 5.505 0 0 1-2.405 2.406c-.668.34-1.379.476-2.153.539-.744.06-1.658.06-2.766.06H7.925c-1.108 0-2.022 0-2.767-.06-.773-.063-1.484-.199-2.152-.54A5.505 5.505 0 0 1 .6 24.976c-.34-.668-.476-1.379-.539-2.152-.06-.745-.06-1.66-.06-2.767v-8.92c0-1.109 0-2.023.06-2.768.063-.773.199-1.484.54-2.152A5.505 5.505 0 0 1 3.005 3.81c.668-.34 1.379-.476 2.152-.539.745-.06 1.66-.06 2.767-.06h.332v2.752h-.275c-1.179 0-1.98 0-2.6.051-.603.05-.911.139-1.127.249a2.752 2.752 0 0 0-1.202 1.202c-.11.216-.2.524-.249 1.127-.05.62-.051 1.421-.051 2.6v8.807c0 1.179 0 1.98.051 2.6.05.603.139.912.249 1.127.263.518.684.939 1.202 1.203.216.11.524.199 1.127.248.62.05 1.421.052 2.6.052h6.055c1.179 0 1.98-.002 2.6-.052.603-.05.911-.139 1.126-.248a2.752 2.752 0 0 0 1.203-1.203c.11-.215.2-.524.248-1.127.051-.62.052-1.421.052-2.6v-8.807c0-1.179 0-1.98-.052-2.6-.049-.603-.138-.911-.248-1.127a2.752 2.752 0 0 0-1.203-1.202c-.215-.11-.523-.2-1.127-.249-.619-.05-1.42-.051-2.6-.051h-.274V3.21z"/></g><g opacity=".5"><path fill="#fff" d="M5.505 19.724a1.376 1.376 0 1 1 2.752 0 1.376 1.376 0 0 1-2.752 0zm9.633-1.376a1.376 1.376 0 1 1 0 2.752h-2.752a1.376 1.376 0 1 1 0-2.752zm0-5.505a1.376 1.376 0 1 1 0 2.753h-2.752a1.376 1.376 0 1 1 0-2.753zm-6.88 1.376a1.376 1.376 0 1 1-2.753 0 1.376 1.376 0 0 1 2.752 0z"/></g><g opacity=".5"><path fill="#fff" d="M12.386 3.21a1.376 1.376 0 1 1 0 2.753H9.633a1.376 1.376 0 1 1 0-2.753zM9.633 8.715h2.753a4.128 4.128 0 1 0 0-8.257H9.633a4.128 4.128 0 0 0 0 8.257z"/></g></g></g></svg>