<svg xmlns="http://www.w3.org/2000/svg" width="26" height="28" viewBox="0 0 26 28"><g opacity=".5"><g opacity=".5"><path fill="#fff" d="M11.535.74a4.128 4.128 0 0 1 3.025 0l8.257 3.251a4.128 4.128 0 0 1 2.616 3.841v5.01c0 5.589-3.08 10.723-8.01 13.354l-2.431 1.298a4.128 4.128 0 0 1-3.888 0l-2.432-1.298a15.137 15.137 0 0 1-8.01-13.354v-5.01a4.128 4.128 0 0 1 2.616-3.84zm2.017 2.56a1.376 1.376 0 0 0-1.008 0L4.287 6.553a1.376 1.376 0 0 0-.872 1.28v5.01c0 4.573 2.52 8.773 6.553 10.926l2.432 1.298c.405.216.89.216 1.296 0l2.432-1.298a12.385 12.385 0 0 0 6.553-10.926v-5.01c0-.565-.346-1.073-.872-1.28z"/></g></g></svg>