<svg xmlns="http://www.w3.org/2000/svg" width="26" height="26" viewBox="0 0 26 26"><g opacity=".5"><g opacity=".5"><path fill="#fff" d="M21.307 3.256v18.567c0 .566-.645.89-1.1.552l-.969-.722a3.44 3.44 0 0 0-4.12.006l-.416.313a2.752 2.752 0 0 1-3.303 0l-.417-.313a3.44 3.44 0 0 0-4.12-.006l-.97.722a.688.688 0 0 1-1.099-.552V3.256zM2.041 21.823c0 2.83 3.226 4.45 5.496 2.76l.97-.723a.688.688 0 0 1 .823.001l.417.313a5.504 5.504 0 0 0 6.606 0l.417-.313a.688.688 0 0 1 .824-.001l.97.722c2.269 1.691 5.495.071 5.495-2.759V.504H2.041z"/></g><g opacity=".5"><path fill="#fff" d="M18.555 14.265a1.376 1.376 0 1 1-2.752 0 1.376 1.376 0 0 1 2.752 0zm-11.01 0c0-.76.617-1.376 1.377-1.376h2.752a1.376 1.376 0 1 1 0 2.753H8.922c-.76 0-1.376-.616-1.376-1.377zm11.01-5.504a1.376 1.376 0 1 1-2.752 0 1.376 1.376 0 0 1 2.752 0zm-6.88-1.376a1.376 1.376 0 1 1 0 2.752H8.921a1.376 1.376 0 0 1 0-2.752z"/></g><g opacity=".5"><path fill="#fff" d="M.665 1.88c0-.76.616-1.376 1.376-1.376H24.06a1.376 1.376 0 0 1 0 2.752H2.041c-.76 0-1.376-.616-1.376-1.376z"/></g></g></svg>