<svg xmlns="http://www.w3.org/2000/svg" width="26" height="26" viewBox="0 0 26 26"><g><g opacity=".5"><g opacity=".5"><path fill="#fff" d="M19.577 8.85a2.766 2.766 0 0 1 2.766 2.765v8.298a2.766 2.766 0 0 1-2.766 2.766H5.747a2.766 2.766 0 0 1-2.765-2.766v-8.298A2.766 2.766 0 0 1 5.748 8.85zM.217 19.912a5.532 5.532 0 0 0 5.53 5.532h13.83a5.532 5.532 0 0 0 5.531-5.532v-8.298a5.532 5.532 0 0 0-5.531-5.531H5.747a5.532 5.532 0 0 0-5.53 5.531z"/></g><g opacity=".5"><path fill="#fff" d="M12.662 11.615c-.763 0-1.383.62-1.383 1.383v1.383H9.896a1.383 1.383 0 0 0 0 2.766h1.383v1.383a1.383 1.383 0 1 0 2.766 0v-1.383h1.383a1.383 1.383 0 1 0 0-2.766h-1.383v-1.383c0-.764-.619-1.383-1.383-1.383z"/></g><g opacity=".5"><path fill="#fff" d="M9.896 3.318c-.763 0-1.382.619-1.382 1.383v1.383H5.748V4.7A4.149 4.149 0 0 1 9.896.55h5.532a4.149 4.149 0 0 1 4.149 4.15v1.383H16.81V4.7c0-.764-.62-1.383-1.383-1.383z"/></g></g></g></svg>