<svg xmlns="http://www.w3.org/2000/svg" width="28" height="27" viewBox="0 0 28 27"><g><g opacity=".5"><g opacity=".5"><path fill="#fff" d="M9.056 24.449c.69.4.956-.035 1.231-.624.426-1.016 1.053-2.094 1.862-2.822.598-.539 1.271-.872 2.003-.924.072-.006.144-.008.215-.008-1.092-3.203-3.06-7.95-6.34-9.683-.574-.302-1.071-.415-1.491-.394a1.713 1.713 0 0 0-.943.338c-.252.184-.451.429-.591.693-.65 1.23-.777 3.022-.451 4.984.341 2.06 1.18 4.266 2.44 6.206.573.817 1.19 1.728 2.065 2.234zM.834 9.324c.072-3.45 1.556-5.726 3.931-7.173 4.678-2.851 14.747-2.63 19.06 0 5.37 3.274 4.213 10.545 2.544 15.585-.844 2.552-3.153 7.58-5.944 8.913-.492.236-.986.35-1.475.332a2.672 2.672 0 0 1-1.49-.514c-1.443-1.034-1.403-2.732-2.614-3.787-.21-.182-.384-.257-.527-.247-.172.012-.373.13-.59.324-.85.767-.993 1.556-1.515 2.467a3.941 3.941 0 0 1-1.016 1.192c-1.045.765-2.229.706-3.324.074-2.68-1.549-4.87-6.404-5.647-8.754C1.383 15.19.79 12.062.834 9.324zm17.674-6.53c-3.054-.493-7.72-.44-10.652.53.751 0 1.544.082 2.364.249 1.478.302 2.982.935 4.47 1.562 1.294.545 6.445 2.78 7.175.278a.664.664 0 0 0 .003-.357c-.29-1.132-2.469-1.993-3.36-2.263zm.327 21.753c.192.137.374.074.574-.021 2.059-.983 4.15-5.819 4.716-7.528.635-1.916 1.108-4.156 1.26-6.72.116-2.013-.319-3.53-1.162-4.658-.02.15-.052.3-.096.45-.198.678-.636 1.314-1.33 1.87-2.592 2.073-5.778.731-9.022-.635-1.377-.58-2.77-1.166-4.026-1.424a9.323 9.323 0 0 0-2-.2c-1.186.017-2.204.31-2.965.87-.727.534-1.237 1.337-1.453 2.402-.027.136-.05.275-.068.42.257-.352.57-.674.936-.943a4.063 4.063 0 0 1 2.227-.789c.815-.04 1.725.147 2.7.662 4.115 2.173 6.286 7.497 7.668 11.574.293.868 1.39 4.204 2.041 4.67z"/></g></g></g></svg>