<svg xmlns="http://www.w3.org/2000/svg" width="25" height="25" viewBox="0 0 25 25"><g><g opacity=".5"><g opacity=".5"><path fill="#fff" d="M16.616 2.963a2.752 2.752 0 0 0-2.752 2.752v13.761a5.505 5.505 0 0 1-11.01 0V4.34h2.753v15.137a2.752 2.752 0 1 0 5.504 0V5.715a5.505 5.505 0 0 1 11.01 0v13.761h-2.753V5.715a2.752 2.752 0 0 0-2.752-2.752z"/></g><g opacity=".5"><path fill="#fff" d="M5.42.871a1.376 1.376 0 0 0-2.378 0l-2.42 4.15a1.376 1.376 0 0 0 1.188 2.07h4.841A1.376 1.376 0 0 0 7.84 5.02z"/></g><g opacity=".5"><path fill="#fff" d="M19.368 20.852a1.376 1.376 0 1 1 2.752 0 1.376 1.376 0 0 1-2.752 0zm1.376-4.128a4.128 4.128 0 1 0 0 8.256 4.128 4.128 0 0 0 0-8.256z"/></g></g></g></svg>