<svg xmlns="http://www.w3.org/2000/svg" width="47" height="47" viewBox="0 0 47 47"><defs><clipPath id="z76va"><path d="M0 46.248V0h46.317v46.248z"/></clipPath></defs><g><g><g/><g clip-path="url(#z76va)"><path fill="#fff" d="M25.302 30.867c-2.487 0-3.223-.701-3.223-2.769V24.77c.876-.21 1.822-.42 2.838-.42 2.698 0 3.293.702 3.293 3.154 0 2.242-.315 3.364-2.908 3.364m.07-9.67c-.875 0-1.751.07-2.662.245-.35.07-.63-.07-.63-.491v-.7c0-3.294.244-4.485 3.012-4.485 2.382 0 2.908.14 2.908 1.857 0 .7.49.911 1.297.911h.84c.981 0 1.367-.246 1.367-1.192 0-4.133-1.787-5.185-5.886-5.185-6.412 0-7.147 2.593-7.147 10.792.035 7.918-.42 11.421 6.762 11.421 4.555 0 6.586-1.507 6.586-7.288 0-4.764-2.207-5.885-6.447-5.885"/></g><g clip-path="url(#z76va)"><path fill="#fff" d="M14.064 12.543h-3.188c-1.226 0-1.857.21-1.857 1.226v1.156c0 1.016.631 1.226 1.857 1.226h.736c.455 0 .665.245.665.947v15.135c0 1.226.21 1.856 1.227 1.856h1.19c1.017 0 1.227-.63 1.227-1.856V13.77c0-1.016-.63-1.226-1.857-1.226"/></g><g clip-path="url(#z76va)"><path fill="#fff" d="M43.27 20.53c0 .527-.246.806-.737.806h-2.347V19.69c0-1.226-.175-1.857-1.227-1.857h-1.05c-1.051 0-1.227.631-1.227 1.857v1.646h-1.646c-1.226 0-1.858.176-1.858 1.227v1.121c0 1.05.632 1.226 1.858 1.226h1.646v1.647c0 1.226.176 1.857 1.226 1.857h1.051c1.052 0 1.227-.63 1.227-1.857V24.91h2.347c.456 0 .701.246.736.701v5.325c0 1.297-.386 2.277-1.296 3.153l-7.813 7.814c-.911.91-1.927 1.331-3.188 1.331H15.345c-1.26 0-2.277-.42-3.187-1.331l-7.813-7.814c-.911-.911-1.332-1.856-1.297-3.153v-15.45c0-1.297.421-2.418 1.366-3.364l7.953-8.058c.807-.806 1.822-1.05 2.978-1.05h15.627c1.156 0 2.171.244 2.977 1.05l7.954 8.058c.91.946 1.366 2.067 1.366 3.364zM36.085 2.033C34.721.701 33.004 0 30.936 0H15.38c-2.066 0-3.818.701-5.15 2.032L1.997 10.23C.7 11.527 0 13.243 0 15.136v15.8c0 2.172.737 3.854 2.207 5.291l7.814 7.813c1.54 1.54 3.258 2.242 5.465 2.207h15.346c2.137 0 3.889-.631 5.465-2.207l7.813-7.813c1.436-1.437 2.207-3.154 2.207-5.29V15.135c0-1.893-.7-3.61-1.997-4.906z"/></g></g></g></svg>