<svg xmlns="http://www.w3.org/2000/svg" width="26" height="26" viewBox="0 0 26 26"><g><g opacity=".5"><g opacity=".5"><path fill="#fff" d="M.833 12.739c0-.764.62-1.383 1.383-1.383h22.127a1.383 1.383 0 1 1 0 2.766H2.216c-.764 0-1.383-.62-1.383-1.383z"/></g><g opacity=".5"><path fill="#fff" d="M25.726 7.207a1.383 1.383 0 1 1-2.766 0c0-1.375-.012-1.791-.094-2.098a2.766 2.766 0 0 0-1.956-1.956c-.307-.083-.724-.095-2.099-.095a1.383 1.383 0 0 1 0-2.765h.19c1.1-.001 1.917-.001 2.625.188a5.532 5.532 0 0 1 3.911 3.912c.19.707.19 1.524.189 2.624zM.833 18.461v-.19a1.383 1.383 0 1 1 2.766 0c0 1.375.012 1.791.094 2.099a2.766 2.766 0 0 0 1.956 1.955c.308.083.724.095 2.099.095a1.383 1.383 0 0 1 0 2.766h-.19c-1.1 0-1.917 0-2.625-.189a5.532 5.532 0 0 1-3.911-3.911c-.19-.708-.19-1.525-.189-2.625zm17.978 6.725a1.383 1.383 0 1 1 0-2.766c1.375 0 1.792-.012 2.099-.095a2.766 2.766 0 0 0 1.956-1.955c.082-.308.094-.724.094-2.1a1.383 1.383 0 1 1 2.766 0v.191c0 1.1 0 1.917-.189 2.625a5.532 5.532 0 0 1-3.911 3.911c-.708.19-1.525.19-2.625.189h-.19zM7.748.293a1.383 1.383 0 0 1 0 2.765c-1.375 0-1.791.012-2.099.095a2.766 2.766 0 0 0-1.956 1.956c-.082.307-.094.723-.094 2.098a1.383 1.383 0 1 1-2.766 0v-.19c0-1.1 0-1.917.189-2.624A5.532 5.532 0 0 1 4.933.48c.708-.19 1.525-.19 2.625-.188h.19z"/></g></g></g></svg>