<svg xmlns="http://www.w3.org/2000/svg" width="26" height="26" viewBox="0 0 26 26"><g opacity=".5"><g opacity=".5"><path fill="#fff" d="M7.13 4.87A4.149 4.149 0 0 1 11.279.72h2.766a4.149 4.149 0 0 1 4.148 4.15v2.765h2.766a4.149 4.149 0 0 1 4.149 4.15v2.765a4.149 4.149 0 0 1-4.149 4.149h-2.766v2.766a4.149 4.149 0 0 1-4.148 4.149h-2.766a4.149 4.149 0 0 1-4.149-4.15V18.7H4.364A4.149 4.149 0 0 1 .215 14.55v-2.766a4.149 4.149 0 0 1 4.15-4.149H7.13zm4.149-1.383c-.764 0-1.383.619-1.383 1.383V10.4H4.364c-.764 0-1.383.62-1.383 1.383v2.766c0 .764.62 1.383 1.383 1.383h5.532v5.532c0 .764.619 1.383 1.383 1.383h2.766c.763 0 1.382-.62 1.382-1.383v-5.532h5.532c.764 0 1.383-.62 1.383-1.383v-2.766c0-.764-.62-1.383-1.383-1.383h-5.532V4.87c0-.764-.619-1.383-1.382-1.383z"/></g></g></svg>