<svg xmlns="http://www.w3.org/2000/svg" width="26" height="26" viewBox="0 0 26 26"><g opacity=".5"><g opacity=".5"><path fill="#fff" d="M5.06 3.798a.995.995 0 0 1 1.501.107L8.793 6.89c.41.548.354 1.314-.13 1.797l-.152.153a4.128 4.128 0 0 0 0 5.839l2.988 2.988a4.128 4.128 0 0 0 5.838 0l.153-.153a1.376 1.376 0 0 1 1.797-.129l3.008 2.248a.971.971 0 0 1 .105 1.465c-.808.808-1.65 1.342-2.538 1.495-2.46.425-7.323.479-12.04-4.238C3.108 13.641 3.17 8.751 3.595 6.29c.15-.87.672-1.699 1.465-2.491zM.883 5.82c-.527 3.053-.536 8.95 4.993 14.48 5.527 5.527 11.394 5.533 14.454 5.004 1.663-.287 2.995-1.24 4.016-2.261a3.723 3.723 0 0 0-.403-5.615l-3.008-2.248a4.128 4.128 0 0 0-5.39.387l-.154.153a1.376 1.376 0 0 1-1.946 0l-2.988-2.988a1.376 1.376 0 0 1 0-1.947l.153-.153a4.128 4.128 0 0 0 .387-5.39L8.766 2.256a3.748 3.748 0 0 0-5.652-.406C2.104 2.861 1.166 4.18.883 5.821z"/></g><g opacity=".5"><path fill="#fff" d="M15.795 6.255a1.376 1.376 0 1 0 0 2.752c.76 0 1.376.616 1.376 1.376a1.376 1.376 0 1 0 2.753 0 4.128 4.128 0 0 0-4.129-4.128zm0-5.505a1.376 1.376 0 1 0 0 2.753c3.8 0 6.88 3.08 6.88 6.88a1.376 1.376 0 1 0 2.753 0A9.633 9.633 0 0 0 15.795.75z"/></g></g></svg>