<svg xmlns="http://www.w3.org/2000/svg" width="28" height="23" viewBox="0 0 28 23"><g><g opacity=".5"><g opacity=".5"><path fill="#fff" d="M23.394 10.447a2.064 2.064 0 1 1 4.128 0 2.064 2.064 0 0 1-4.128 0z"/></g><g opacity=".5"><path fill="#fff" d="M5.478 13.617l1.011 5.057a.892.892 0 0 0 1.768-.175v-4.612h2.752v4.612a3.645 3.645 0 0 1-7.219.715L2.78 14.157z"/></g><g opacity=".5"><path fill="#fff" d="M9.633 12.697a15.128 15.128 0 0 0-2.36-.185H4.817a2.064 2.064 0 0 1 0-4.129H7.28c.791 0 1.578-.062 2.354-.184zm10.655-9.524c1.376-.805 3.106.188 3.106 1.782v10.994c0 1.595-1.732 2.587-3.108 1.78l-5.359-3.14a15.137 15.137 0 0 0-2.542-1.188V7.496c.877-.314 1.727-.71 2.538-1.184zm5.859 1.782c0-3.72-4.038-6.036-7.249-4.157l-5.365 3.138A12.386 12.386 0 0 1 7.28 5.63H4.816a4.817 4.817 0 0 0 0 9.633h2.458c2.201 0 4.363.587 6.262 1.7l5.359 3.14c3.21 1.882 7.252-.434 7.252-4.155z"/></g></g></g></svg>