<svg xmlns="http://www.w3.org/2000/svg" width="28" height="23" viewBox="0 0 28 23"><g><g opacity=".5"><g opacity=".5"><path fill="#fff" d="M20.632 3.911c2.639-2.462 6.945-.59 6.945 3.019v8.244c0 3.608-4.303 5.48-6.943 3.02l-4.066-3.789v-6.7zm4.193 3.019c0-1.203-1.436-1.827-2.315-1.006L19.32 8.9v4.308l3.19 2.973c.88.82 2.315.195 2.315-1.007z"/></g><g opacity=".5"><path fill="#fff" d="M8.036 2.798h3.302c1.18 0 1.98.001 2.6.052.603.049.912.138 1.127.248.518.264.939.685 1.203 1.203.11.215.199.523.248 1.127.05.62.052 1.42.052 2.6v6.054c0 1.18-.001 1.98-.052 2.6-.05.603-.139.912-.248 1.127a2.752 2.752 0 0 1-1.203 1.203c-.215.11-.524.199-1.127.248-.62.05-1.42.052-2.6.052H8.036c-1.18 0-1.98-.001-2.6-.052-.603-.05-.912-.139-1.127-.248a2.752 2.752 0 0 1-1.203-1.203c-.11-.215-.199-.524-.248-1.127-.05-.62-.052-1.42-.052-2.6V8.027c0-1.178.001-1.98.052-2.6.05-.603.139-.911.248-1.126A2.752 2.752 0 0 1 4.31 3.098c.215-.11.524-.2 1.127-.248.62-.051 1.42-.052 2.6-.052zM7.979.046c-1.108 0-2.022 0-2.767.06-.773.064-1.485.2-2.152.54A5.505 5.505 0 0 0 .654 3.05c-.34.668-.476 1.38-.54 2.153-.06.744-.06 1.659-.06 2.766v6.17c0 1.107 0 2.021.06 2.766.064.773.2 1.484.54 2.152a5.505 5.505 0 0 0 2.406 2.406c.667.34 1.379.476 2.152.54.745.06 1.66.06 2.767.06h3.416c1.108 0 2.022 0 2.767-.06.773-.064 1.485-.2 2.153-.54a5.505 5.505 0 0 0 2.405-2.406c.34-.668.476-1.379.54-2.152.06-.745.06-1.66.06-2.767V7.97c0-1.107 0-2.022-.06-2.766-.064-.774-.2-1.485-.54-2.153A5.505 5.505 0 0 0 16.315.646c-.668-.34-1.38-.476-2.153-.54-.745-.06-1.659-.06-2.767-.06H7.98z"/></g></g></g></svg>