<svg xmlns="http://www.w3.org/2000/svg" width="29" height="29" viewBox="0 0 29 29"><g><g opacity=".5"><g opacity=".5"><path fill="#fff" d="M4.23 14.115a8.298 8.298 0 0 1 6.284-5.006v6.799a2.766 2.766 0 0 0 2.765 2.766h6.799A8.298 8.298 0 1 1 4.23 14.115zM1.047 19.45a11.064 11.064 0 0 0 21.886-1.369c.089-1.247-.93-2.172-2.047-2.172H13.28V8.302c0-1.117-.925-2.136-2.172-2.047A11.063 11.063 0 0 0 1.046 19.45z"/></g><g opacity=".5"><path fill="#fff" d="M18.811 3.577zm0 0a8.298 8.298 0 0 1 6.799 6.8H18.81zm-2.766 6.8a2.766 2.766 0 0 0 2.766 2.765h7.606c1.117 0 2.135-.925 2.046-2.173A11.062 11.062 0 0 0 18.218.724c-1.248-.09-2.173.929-2.173 2.046z"/></g></g></g></svg>