<svg xmlns="http://www.w3.org/2000/svg" width="25" height="25" viewBox="0 0 25 25"><g><g opacity=".5"><g opacity=".5"><path fill="#fff" d="M1.376.128c.76 0 1.376.616 1.376 1.376v17.89a2.752 2.752 0 0 0 2.753 2.753h17.89a1.376 1.376 0 1 1 0 2.752H5.504A5.505 5.505 0 0 1 0 19.394V1.504C0 .744.616.128 1.376.128z"/></g><g opacity=".5"><path fill="#fff" d="M23.83.199c.72.24 1.11 1.02.87 1.74L21.98 10.1c-.97 2.912-4.666 3.784-6.836 1.614l-1.959-1.96a1.376 1.376 0 0 0-2.279.539l-2.72 8.16a1.376 1.376 0 1 1-2.61-.87l2.72-8.16c.97-2.912 4.665-3.784 6.835-1.614l1.96 1.959a1.376 1.376 0 0 0 2.278-.538l2.72-8.16a1.376 1.376 0 0 1 1.74-.871z"/></g></g></g></svg>