<svg xmlns="http://www.w3.org/2000/svg" width="27" height="27" viewBox="0 0 27 27"><g opacity=".5"><g opacity=".5"><path fill="#fff" d="M18.448 22.56l-1.22 2.925a.688.688 0 0 0 .9.9l2.926-1.22c.166-.068.317-.17.444-.297l4.903-4.903a1.376 1.376 0 0 0 0-1.946l-.806-.806a1.376 1.376 0 0 0-1.946 0l-4.904 4.903a1.375 1.375 0 0 0-.297.444z"/></g><g opacity=".5"><path fill="#fff" d="M8.587 3.043h8.92c1.109 0 2.023 0 2.768.06.773.064 1.484.2 2.152.54a5.505 5.505 0 0 1 2.406 2.406c.34.667.476 1.378.539 2.152.06.745.06 1.659.06 2.767v1.708a1.376 1.376 0 1 1-2.752 0v-1.651c0-1.18 0-1.98-.051-2.6-.05-.603-.139-.912-.249-1.127a2.752 2.752 0 0 0-1.202-1.203c-.216-.11-.524-.199-1.127-.248-.62-.05-1.421-.052-2.6-.052H8.644c-1.179 0-1.98.001-2.6.052-.603.05-.912.139-1.127.248a2.752 2.752 0 0 0-1.203 1.203c-.11.215-.199.524-.248 1.127-.05.62-.052 1.42-.052 2.6v6.055c0 1.178.001 1.98.052 2.6.05.602.139.911.248 1.126.264.518.685.94 1.203 1.203.215.11.524.199 1.127.248.62.05 1.421.052 2.6.052h4.403a1.376 1.376 0 1 1 0 2.752h-4.46c-1.108 0-2.022 0-2.767-.06-.773-.064-1.484-.2-2.152-.54a5.505 5.505 0 0 1-2.406-2.405c-.34-.668-.476-1.38-.54-2.153-.06-.745-.06-1.659-.06-2.767v-6.168c0-1.108 0-2.022.06-2.767.064-.774.2-1.485.54-2.152a5.505 5.505 0 0 1 2.406-2.406c.668-.34 1.379-.476 2.152-.54.745-.06 1.66-.06 2.767-.06z"/></g><g opacity=".5"><path fill="#fff" d="M8.92 1.667a1.376 1.376 0 0 0-2.753 0v2.752a1.376 1.376 0 0 0 2.752 0z"/></g><g opacity=".5"><path fill="#fff" d="M19.928 1.667a1.376 1.376 0 1 0-2.752 0v2.752a1.376 1.376 0 1 0 2.752 0z"/></g></g></svg>