<svg xmlns="http://www.w3.org/2000/svg" width="28" height="23" viewBox="0 0 28 23"><g><g opacity=".5"><g opacity=".5"><path fill="#fff" d="M6.88 6.091A2.752 2.752 0 0 1 9.634 3.34a1.376 1.376 0 0 0 0-2.752 5.505 5.505 0 0 0 0 11.01 1.376 1.376 0 1 0 0-2.753A2.752 2.752 0 0 1 6.88 6.09z"/></g><g opacity=".5"><path fill="#fff" d="M2.752 19.394a2.294 2.294 0 0 1 2.294-2.293h.458a1.376 1.376 0 1 0 0-2.753h-.458A5.046 5.046 0 0 0 0 19.394a3.211 3.211 0 0 0 3.21 3.211h2.294a1.376 1.376 0 1 0 0-2.752H3.211a.459.459 0 0 1-.459-.459z"/></g><g opacity=".5"><path fill="#fff" d="M15.137 6.091a2.752 2.752 0 1 1 5.505 0 2.752 2.752 0 0 1-5.505 0zM17.89.587a5.505 5.505 0 1 0 0 11.01 5.505 5.505 0 0 0 0-11.01z"/></g><g opacity=".5"><path fill="#fff" d="M11.009 19.394a2.294 2.294 0 0 1 2.294-2.293h9.174a2.294 2.294 0 0 1 2.293 2.293.459.459 0 0 1-.458.459H11.468a.459.459 0 0 1-.459-.459zm2.294-5.046a5.046 5.046 0 0 0-5.046 5.046 3.211 3.211 0 0 0 3.21 3.211h12.845a3.211 3.211 0 0 0 3.21-3.21 5.046 5.046 0 0 0-5.045-5.047z"/></g></g></g></svg>