<svg xmlns="http://www.w3.org/2000/svg" width="30" height="19" viewBox="0 0 30 19"><defs><clipPath id="jlrpa"><path d="M0 18.713V.33h30v18.383z"/></clipPath></defs><g><g><g><path fill="#53bcf0" d="M0 18.713V.33h30v18.383z"/></g><g clip-path="url(#jlrpa)"><path fill="#53bcf0" d="M29.653 8.572L22.88.83a1.451 1.451 0 0 0-2.05-.144c-.574.5-.642 1.475-.144 2.05l4.674 5.337H1.452a1.452 1.452 0 0 0 0 2.903h23.907l-4.674 5.338c-.498.574-.417 1.536.145 2.05.588.537 1.55.43 2.049-.145l6.774-7.741c.475-.635.45-1.35 0-1.906"/></g></g></g></svg>