<svg xmlns="http://www.w3.org/2000/svg" width="110" height="110" viewBox="0 0 110 110"><defs><clipPath id="ijaca"><path d="M0 110V0h110v110z"/></clipPath></defs><g><g><g><g/><g clip-path="url(#ijaca)"><path fill="red" d="M55 110C24.629 110 0 85.371 0 55S24.629 0 55 0s55 24.629 55 55-24.629 55-55 55"/></g><g clip-path="url(#ijaca)"><path fill="#fff" d="M47.531 65.857V44.143L66.616 55zm42.471-28.556a9.16 9.16 0 0 0-6.457-6.501c-5.698-1.54-28.534-1.54-28.534-1.54s-22.847 0-28.534 1.54a9.16 9.16 0 0 0-6.457 6.501C18.48 43.032 18.48 55 18.48 55s0 11.968 1.529 17.699a9.16 9.16 0 0 0 6.457 6.501C32.164 80.74 55 80.74 55 80.74s22.847 0 28.534-1.54a9.16 9.16 0 0 0 6.457-6.501C91.52 66.968 91.52 55 91.52 55s0-11.968-1.518-17.699"/></g></g></g></g></svg>