<svg width="813" height="811" viewBox="0 0 813 811" fill="none" xmlns="http://www.w3.org/2000/svg">
<path fill-rule="evenodd" clip-rule="evenodd" d="M309.594 760.556C332.528 713.789 366.77 662.005 406.288 662.005C445.096 662.005 481.509 715.46 504 761.5L503.905 761.501C543.154 842.418 606.791 816.792 669.99 728.596C731.672 642.651 800.403 499.695 812.299 298.867C825.957 63.0558 638.268 0 406.522 0C174.775 0 -13.3546 63.0558 0.744045 298.867C12.6398 499.695 81.3708 642.651 143.053 728.596C205.931 815.917 269.243 842.148 308.539 762.724H308.537C308.875 762.027 309.216 761.328 309.559 760.629C309.57 760.605 309.582 760.58 309.593 760.556H309.594Z" fill="url(#paint0_linear_109_52)"/>
<path d="M263.791 112.929C401.263 141.053 562.528 269.558 663.428 188.647C736.57 130.236 684.578 48.8926 552.834 10.3843C507.01 3.02874 457.661 0 406.55 0C174.787 0 -13.3556 63.1709 0.744098 299.413C-1.45898 147.11 112.66 82.2087 263.791 112.929Z" fill="url(#paint1_linear_109_52)"/>
<path fill-rule="evenodd" clip-rule="evenodd" d="M308.547 762.724L308.537 762.724C331.469 715.405 366.158 662.005 406.288 662.005C443.012 662.005 477.593 709.874 500.259 754.03C480.567 713.209 465.579 668.563 450.074 622.375C423.217 542.376 394.807 457.75 337.714 380.356C202.395 196.193 98.3721 238.891 64.4324 303.154C11.0985 404.077 45.479 589.533 142.891 728.84C205.849 816.112 269.24 842.279 308.547 762.724Z" fill="url(#paint2_linear_109_52)"/>
<defs>
<linearGradient id="paint0_linear_109_52" x1="813.016" y1="405.166" x2="0.0446773" y2="405.166" gradientUnits="userSpaceOnUse">
<stop stop-color="#B6E4FF"/>
<stop offset="0.484375" stop-color="#2EA8F4"/>
<stop offset="1" stop-color="#0057E3"/>
</linearGradient>
<linearGradient id="paint1_linear_109_52" x1="696.74" y1="149.705" x2="0.0382876" y2="149.705" gradientUnits="userSpaceOnUse">
<stop stop-color="#0057E3"/>
<stop offset="0.484375" stop-color="#2EA8F4"/>
<stop offset="1" stop-color="#B6E4FF"/>
</linearGradient>
<linearGradient id="paint2_linear_109_52" x1="418.59" y1="537.5" x2="39.3973" y2="529.077" gradientUnits="userSpaceOnUse">
<stop stop-color="#0057E3"/>
<stop offset="0.484375" stop-color="#2EA8F4"/>
<stop offset="1" stop-color="#B6E4FF"/>
</linearGradient>
</defs>
</svg>
